<svg width="265" height="710" viewBox="0 0 265 710" fill="none" xmlns="http://www.w3.org/2000/svg">
<rect x="157" y="29.3999" width="74.7012" height="17.2106" transform="rotate(-23.1765 157 29.3999)" fill="#7F8CFF"/>
<path d="M259.207 50.4108C255.738 44.3228 250.869 39.1281 244.993 35.2471C239.117 31.3662 232.4 28.9082 225.384 28.0721C218.369 27.2361 211.253 28.0454 204.613 30.4347C197.973 32.824 191.995 36.7261 187.163 41.8249C182.332 46.9238 178.782 53.0761 176.803 59.7838C174.823 66.4915 174.468 73.5659 175.767 80.4344C177.066 87.3028 179.983 93.7722 184.281 99.3187C188.579 104.865 194.137 109.333 200.505 112.36L208.894 95.1016C205.266 93.3771 202.099 90.8319 199.651 87.672C197.202 84.5122 195.541 80.8266 194.801 76.9137C194.06 73.0007 194.263 68.9704 195.39 65.1491C196.518 61.3277 198.54 57.8227 201.293 54.9179C204.046 52.0131 207.451 49.7901 211.234 48.4289C215.017 47.0678 219.071 46.6067 223.067 47.083C227.064 47.5593 230.891 48.9596 234.239 51.1706C237.586 53.3815 240.36 56.341 242.336 59.8093L259.207 50.4108Z" fill="white"/>
<circle cx="10.5" cy="44.5005" r="10.5" fill="#7F8CFF"/>
<rect width="76.175" height="13.6273" transform="matrix(0.801365 0.598176 0.598176 -0.801365 105.805 653.889)" fill="#7F8CFF"/>
<circle cx="122.228" cy="687.219" r="15.5552" transform="rotate(48.9435 122.228 687.219)" fill="white"/>
</svg>
